<?xml version="1.0" encoding="UTF-8"?>
<svg id="Layer_1" xmlns="http://www.w3.org/2000/svg" version="1.1" xmlns:lucid="lucid" xmlns:xlink="http://www.w3.org/1999/xlink" viewBox="0 0 680 667.3">
  <!-- Generator: Adobe Illustrator 29.1.0, SVG Export Plug-In . SVG Version: 2.1.0 Build 142)  -->
  <defs>
    <style>
      .st0 {
        fill: url(#radial-gradient1);
      }

      .st0, .st1, .st2, .st3, .st4, .st5, .st6, .st7, .st8, .st9, .st10, .st11, .st12, .st13, .st14, .st15, .st16, .st17, .st18, .st19, .st20, .st21, .st22, .st23, .st24, .st25, .st26 {
        stroke: #000;
        stroke-width: 2px;
      }

      .st1 {
        fill: url(#radial-gradient);
      }

      .st2 {
        fill: url(#radial-gradient2);
      }

      .st27 {
        filter: url(#drop-shadow-18);
      }

      .st3 {
        filter: url(#drop-shadow-25);
      }

      .st4 {
        fill: url(#radial-gradient3);
      }

      .st28 {
        filter: url(#drop-shadow-9);
      }

      .st29 {
        filter: url(#drop-shadow-6);
      }

      .st30 {
        fill: #540e14;
      }

      .st31 {
        filter: url(#drop-shadow-21);
      }

      .st5 {
        filter: url(#drop-shadow-13);
      }

      .st6 {
        filter: url(#drop-shadow-8);
      }

      .st6, .st9, .st14, .st15, .st16, .st17, .st24, .st26 {
        fill: none;
      }

      .st7 {
        fill: url(#linear-gradient1);
      }

      .st8 {
        filter: url(#drop-shadow-19);
      }

      .st9 {
        filter: url(#drop-shadow-5);
      }

      .st10 {
        filter: url(#drop-shadow-7);
      }

      .st11 {
        filter: url(#drop-shadow-22);
      }

      .st32 {
        filter: url(#drop-shadow-1);
      }

      .st12 {
        filter: url(#drop-shadow-10);
      }

      .st13 {
        fill: url(#linear-gradient2);
      }

      .st14 {
        filter: url(#drop-shadow-11);
      }

      .st15 {
        filter: url(#drop-shadow-20);
      }

      .st33 {
        filter: url(#drop-shadow-24);
      }

      .st16 {
        filter: url(#drop-shadow-2);
      }

      .st17 {
        filter: url(#drop-shadow-17);
      }

      .st18 {
        filter: url(#drop-shadow-4);
      }

      .st19 {
        fill: url(#radial-gradient4);
      }

      .st20 {
        fill: url(#linear-gradient);
      }

      .st21 {
        fill: url(#linear-gradient5);
      }

      .st34 {
        filter: url(#drop-shadow-12);
      }

      .st35 {
        filter: url(#drop-shadow-3);
      }

      .st22 {
        fill: url(#linear-gradient3);
      }

      .st23 {
        filter: url(#drop-shadow-16);
      }

      .st24 {
        filter: url(#drop-shadow-23);
      }

      .st25 {
        fill: url(#linear-gradient4);
      }

      .st36 {
        filter: url(#drop-shadow-15);
      }

      .st26 {
        filter: url(#drop-shadow-14);
      }
    </style>
    <filter id="drop-shadow-1" x="-11" y="-11.7" width="703" height="690" filterUnits="userSpaceOnUse">
      <feOffset dx="0" dy="0"/>
      <feGaussianBlur result="blur" stdDeviation="10"/>
      <feFlood flood-color="#fff" flood-opacity=".2"/>
      <feComposite in2="blur" operator="in"/>
      <feComposite in="SourceGraphic"/>
    </filter>
    <linearGradient id="linear-gradient" x1="520" y1="510" x2="520" y2="430" gradientTransform="translate(-180 530) scale(1 -1)" gradientUnits="userSpaceOnUse">
      <stop offset="0" stop-color="#fff"/>
      <stop offset=".4" stop-color="#c7e8ac"/>
      <stop offset="1" stop-color="#99d5ca"/>
    </linearGradient>
    <radialGradient id="radial-gradient" cx="280" cy="306.3" fx="280" fy="306.3" r="80" gradientTransform="translate(-180 530) scale(1 -1)" gradientUnits="userSpaceOnUse">
      <stop offset="0" stop-color="#fff"/>
      <stop offset=".4" stop-color="#fff"/>
      <stop offset="1" stop-color="#ffbbb1"/>
    </radialGradient>
    <radialGradient id="radial-gradient1" cx="280" cy="306.3" fx="280" fy="306.3" r="80" gradientTransform="translate(-180 530) scale(1 -1)" gradientUnits="userSpaceOnUse">
      <stop offset="0" stop-color="#fff"/>
      <stop offset=".4" stop-color="#fff"/>
      <stop offset="1" stop-color="#ffbbb1"/>
    </radialGradient>
    <radialGradient id="radial-gradient2" cx="280" cy="306.3" fx="280" fy="306.3" r="80" gradientTransform="translate(-180 530) scale(1 -1)" gradientUnits="userSpaceOnUse">
      <stop offset="0" stop-color="#fff"/>
      <stop offset=".4" stop-color="#fff"/>
      <stop offset="1" stop-color="#ffbbb1"/>
    </radialGradient>
    <linearGradient id="linear-gradient1" x1="457" y1="383.8" x2="560.5" y2="256.5" gradientTransform="translate(-180 530) scale(1 -1)" gradientUnits="userSpaceOnUse">
      <stop offset="0" stop-color="#fff"/>
      <stop offset=".5" stop-color="#ffeca9"/>
      <stop offset="1" stop-color="#ffc374"/>
    </linearGradient>
    <linearGradient id="linear-gradient2" x1="436.9" y1="178.1" x2="596.9" y2="71.4" gradientTransform="translate(-180 530) scale(1 -1)" gradientUnits="userSpaceOnUse">
      <stop offset="0" stop-color="#c1e4f7"/>
      <stop offset=".5" stop-color="#fff"/>
      <stop offset="1" stop-color="#f9d2de"/>
    </linearGradient>
    <linearGradient id="linear-gradient3" x1="440" y1="-117.3" x2="600" y2="2.7" gradientTransform="translate(-180 530) scale(1 -1)" gradientUnits="userSpaceOnUse">
      <stop offset="0" stop-color="#c7e8ac"/>
      <stop offset=".5" stop-color="#fff"/>
      <stop offset="1" stop-color="#c1e4f7"/>
    </linearGradient>
    <radialGradient id="radial-gradient3" cx="802.1" cy="-51" fx="802.1" fy="-51" r="80" gradientTransform="translate(-180 530) scale(1 -1)" gradientUnits="userSpaceOnUse">
      <stop offset="0" stop-color="#fff" stop-opacity=".3"/>
      <stop offset=".2" stop-color="#fff" stop-opacity=".3"/>
      <stop offset="1" stop-color="#ffbbb1"/>
    </radialGradient>
    <linearGradient id="linear-gradient4" x1="679" y1="121.3" x2="839" y2="124" gradientTransform="translate(-180 530) scale(1 -1)" gradientUnits="userSpaceOnUse">
      <stop offset="0" stop-color="#f5b5c8"/>
      <stop offset=".5" stop-color="#fff" stop-opacity=".3"/>
      <stop offset="1" stop-color="#ffc374"/>
    </linearGradient>
    <radialGradient id="radial-gradient4" cx="705.3" cy="337.4" fx="705.3" fy="337.4" r="80" gradientTransform="translate(-180 530) scale(1 -1)" gradientUnits="userSpaceOnUse">
      <stop offset="0" stop-color="#fff"/>
      <stop offset=".6" stop-color="#c1e4f7" stop-opacity=".8"/>
      <stop offset="1" stop-color="#82c9ef" stop-opacity=".4"/>
    </radialGradient>
    <linearGradient id="linear-gradient5" x1="686.6" y1="512.5" x2="804.5" y2="432.5" gradientTransform="translate(-180 530) scale(1 -1)" gradientUnits="userSpaceOnUse">
      <stop offset="0" stop-color="#f9d2de"/>
      <stop offset=".6" stop-color="#d1bcd2"/>
      <stop offset="1" stop-color="#b492b6" stop-opacity=".3"/>
    </linearGradient>
    <filter id="drop-shadow-2" x="84" y="43.3" width="172" height="134" filterUnits="userSpaceOnUse">
      <feOffset dx="0" dy="0"/>
      <feGaussianBlur result="blur1" stdDeviation="5"/>
      <feFlood flood-color="#fff" flood-opacity=".7"/>
      <feComposite in2="blur1" operator="in"/>
      <feComposite in="SourceGraphic"/>
    </filter>
    <filter id="drop-shadow-3" x="84" y="146.3" width="32" height="32" filterUnits="userSpaceOnUse">
      <feOffset dx="0" dy="0"/>
      <feGaussianBlur result="blur2" stdDeviation="5"/>
      <feFlood flood-color="#fff" flood-opacity=".7"/>
      <feComposite in2="blur2" operator="in"/>
      <feComposite in="SourceGraphic"/>
    </filter>
    <filter id="drop-shadow-4" x="225" y="38.3" width="49" height="43" filterUnits="userSpaceOnUse">
      <feOffset dx="0" dy="0"/>
      <feGaussianBlur result="blur3" stdDeviation="5"/>
      <feFlood flood-color="#fff" flood-opacity=".7"/>
      <feComposite in2="blur3" operator="in"/>
      <feComposite in="SourceGraphic"/>
    </filter>
    <filter id="drop-shadow-5" x="324" y="86.3" width="32" height="70" filterUnits="userSpaceOnUse">
      <feOffset dx="0" dy="0"/>
      <feGaussianBlur result="blur4" stdDeviation="5"/>
      <feFlood flood-color="#fff" flood-opacity=".7"/>
      <feComposite in2="blur4" operator="in"/>
      <feComposite in="SourceGraphic"/>
    </filter>
    <filter id="drop-shadow-6" x="324" y="85.3" width="32" height="32" filterUnits="userSpaceOnUse">
      <feOffset dx="0" dy="0"/>
      <feGaussianBlur result="blur5" stdDeviation="5"/>
      <feFlood flood-color="#fff" flood-opacity=".7"/>
      <feComposite in2="blur5" operator="in"/>
      <feComposite in="SourceGraphic"/>
    </filter>
    <filter id="drop-shadow-7" x="318" y="125.3" width="44" height="49" filterUnits="userSpaceOnUse">
      <feOffset dx="0" dy="0"/>
      <feGaussianBlur result="blur6" stdDeviation="5"/>
      <feFlood flood-color="#fff" flood-opacity=".7"/>
      <feComposite in2="blur6" operator="in"/>
      <feComposite in="SourceGraphic"/>
    </filter>
    <filter id="drop-shadow-8" x="324" y="274.3" width="32" height="69" filterUnits="userSpaceOnUse">
      <feOffset dx="0" dy="0"/>
      <feGaussianBlur result="blur7" stdDeviation="5"/>
      <feFlood flood-color="#fff" flood-opacity=".7"/>
      <feComposite in2="blur7" operator="in"/>
      <feComposite in="SourceGraphic"/>
    </filter>
    <filter id="drop-shadow-9" x="324" y="273.3" width="32" height="32" filterUnits="userSpaceOnUse">
      <feOffset dx="0" dy="0"/>
      <feGaussianBlur result="blur8" stdDeviation="5"/>
      <feFlood flood-color="#fff" flood-opacity=".7"/>
      <feComposite in2="blur8" operator="in"/>
      <feComposite in="SourceGraphic"/>
    </filter>
    <filter id="drop-shadow-10" x="318" y="312.3" width="44" height="50" filterUnits="userSpaceOnUse">
      <feOffset dx="0" dy="0"/>
      <feGaussianBlur result="blur9" stdDeviation="5"/>
      <feFlood flood-color="#fff" flood-opacity=".7"/>
      <feComposite in2="blur9" operator="in"/>
      <feComposite in="SourceGraphic"/>
    </filter>
    <filter id="drop-shadow-11" x="324" y="454.3" width="32" height="69" filterUnits="userSpaceOnUse">
      <feOffset dx="0" dy="0"/>
      <feGaussianBlur result="blur10" stdDeviation="5"/>
      <feFlood flood-color="#fff" flood-opacity=".7"/>
      <feComposite in2="blur10" operator="in"/>
      <feComposite in="SourceGraphic"/>
    </filter>
    <filter id="drop-shadow-12" x="324" y="453.3" width="32" height="32" filterUnits="userSpaceOnUse">
      <feOffset dx="0" dy="0"/>
      <feGaussianBlur result="blur11" stdDeviation="5"/>
      <feFlood flood-color="#fff" flood-opacity=".7"/>
      <feComposite in2="blur11" operator="in"/>
      <feComposite in="SourceGraphic"/>
    </filter>
    <filter id="drop-shadow-13" x="318" y="492.3" width="44" height="50" filterUnits="userSpaceOnUse">
      <feOffset dx="0" dy="0"/>
      <feGaussianBlur result="blur12" stdDeviation="5"/>
      <feFlood flood-color="#fff" flood-opacity=".7"/>
      <feComposite in2="blur12" operator="in"/>
      <feComposite in="SourceGraphic"/>
    </filter>
    <filter id="drop-shadow-14" x="407" y="571.3" width="89" height="32" filterUnits="userSpaceOnUse">
      <feOffset dx="0" dy="0"/>
      <feGaussianBlur result="blur13" stdDeviation="5"/>
      <feFlood flood-color="#fff" flood-opacity=".7"/>
      <feComposite in2="blur13" operator="in"/>
      <feComposite in="SourceGraphic"/>
    </filter>
    <filter id="drop-shadow-15" x="406" y="571.3" width="32" height="32" filterUnits="userSpaceOnUse">
      <feOffset dx="0" dy="0"/>
      <feGaussianBlur result="blur14" stdDeviation="5"/>
      <feFlood flood-color="#fff" flood-opacity=".7"/>
      <feComposite in2="blur14" operator="in"/>
      <feComposite in="SourceGraphic"/>
    </filter>
    <filter id="drop-shadow-16" x="465" y="565.3" width="49" height="44" filterUnits="userSpaceOnUse">
      <feOffset dx="0" dy="0"/>
      <feGaussianBlur result="blur15" stdDeviation="5"/>
      <feFlood flood-color="#fff" flood-opacity=".7"/>
      <feComposite in2="blur15" operator="in"/>
      <feComposite in="SourceGraphic"/>
    </filter>
    <filter id="drop-shadow-17" x="564" y="471.3" width="32" height="69" filterUnits="userSpaceOnUse">
      <feOffset dx="0" dy="0"/>
      <feGaussianBlur result="blur16" stdDeviation="5"/>
      <feFlood flood-color="#fff" flood-opacity=".7"/>
      <feComposite in2="blur16" operator="in"/>
      <feComposite in="SourceGraphic"/>
    </filter>
    <filter id="drop-shadow-18" x="564" y="509.3" width="32" height="32" filterUnits="userSpaceOnUse">
      <feOffset dx="0" dy="0"/>
      <feGaussianBlur result="blur17" stdDeviation="5"/>
      <feFlood flood-color="#fff" flood-opacity=".7"/>
      <feComposite in2="blur17" operator="in"/>
      <feComposite in="SourceGraphic"/>
    </filter>
    <filter id="drop-shadow-19" x="558" y="453.3" width="44" height="49" filterUnits="userSpaceOnUse">
      <feOffset dx="0" dy="0"/>
      <feGaussianBlur result="blur18" stdDeviation="5"/>
      <feFlood flood-color="#fff" flood-opacity=".7"/>
      <feComposite in2="blur18" operator="in"/>
      <feComposite in="SourceGraphic"/>
    </filter>
    <filter id="drop-shadow-20" x="564" y="291.3" width="32" height="69" filterUnits="userSpaceOnUse">
      <feOffset dx="0" dy="0"/>
      <feGaussianBlur result="blur19" stdDeviation="5"/>
      <feFlood flood-color="#fff" flood-opacity=".7"/>
      <feComposite in2="blur19" operator="in"/>
      <feComposite in="SourceGraphic"/>
    </filter>
    <filter id="drop-shadow-21" x="564" y="329.3" width="32" height="32" filterUnits="userSpaceOnUse">
      <feOffset dx="0" dy="0"/>
      <feGaussianBlur result="blur20" stdDeviation="5"/>
      <feFlood flood-color="#fff" flood-opacity=".7"/>
      <feComposite in2="blur20" operator="in"/>
      <feComposite in="SourceGraphic"/>
    </filter>
    <filter id="drop-shadow-22" x="558" y="273.3" width="44" height="49" filterUnits="userSpaceOnUse">
      <feOffset dx="0" dy="0"/>
      <feGaussianBlur result="blur21" stdDeviation="5"/>
      <feFlood flood-color="#fff" flood-opacity=".7"/>
      <feComposite in2="blur21" operator="in"/>
      <feComposite in="SourceGraphic"/>
    </filter>
    <filter id="drop-shadow-23" x="564" y="111.3" width="32" height="69" filterUnits="userSpaceOnUse">
      <feOffset dx="0" dy="0"/>
      <feGaussianBlur result="blur22" stdDeviation="5"/>
      <feFlood flood-color="#fff" flood-opacity=".7"/>
      <feComposite in2="blur22" operator="in"/>
      <feComposite in="SourceGraphic"/>
    </filter>
    <filter id="drop-shadow-24" x="564" y="149.3" width="32" height="32" filterUnits="userSpaceOnUse">
      <feOffset dx="0" dy="0"/>
      <feGaussianBlur result="blur23" stdDeviation="5"/>
      <feFlood flood-color="#fff" flood-opacity=".7"/>
      <feComposite in2="blur23" operator="in"/>
      <feComposite in="SourceGraphic"/>
    </filter>
    <filter id="drop-shadow-25" x="558" y="93.3" width="44" height="49" filterUnits="userSpaceOnUse">
      <feOffset dx="0" dy="0"/>
      <feGaussianBlur result="blur24" stdDeviation="5"/>
      <feFlood flood-color="#fff" flood-opacity=".7"/>
      <feComposite in2="blur24" operator="in"/>
      <feComposite in="SourceGraphic"/>
    </filter>
  </defs>
  <g class="st32" lucid:page-tab-id="0_0">
    <path class="st20" d="M388,20c17.7,0,32,17.9,32,40s-14.3,40-32,40h-96c-17.7,0-32-17.9-32-40s14.3-40,32-40h96Z"/>
    <g id="b">
      <path id="M" d="M297.1,55.9c-1.4,0-2.5.6-3.4,1.1v6.8l1.8.3v.8h-6.7v-.8l1.4-.3v-9l-1.4-.3v-.7h4.7v2.3c1.3-1.2,2.5-2.8,5-2.7v4.1c-1.2.2-1-1-1.4-1.5"/>
      <path id="N" d="M299.2,59.3c0-3.7,1.5-5.8,5.1-5.8,3.5,0,4.5,2.2,4.3,6h-5.8c0,2.5.4,4.3,3,4.3,1,0,1.9-.3,2.6-.4.2,1.9-1.9,1.7-3.7,1.8-3.9.3-5.4-2.1-5.4-5.8ZM305.3,58.1c.1-1.8,0-4.3-1.8-3.3-.7.6-.7,1.9-.7,3.3h2.6"/>
      <path id="O" d="M311.3,53.8c3.5-.3,8.6-1.4,8.6,2.7v7.3l1.2.3v.8h-4.1l-.3-.9c-1.9,1.8-6.7,1.7-6.7-2.2s3.1-3.5,6.5-3.6c.6-3.1-1.5-4.7-3.9-3l-.5,1.4h-.8v-2.7ZM313.4,61.7c0,2,1.8,2.3,3.1,1.6v-4c-1.9,0-3.1.4-3.1,2.4"/>
      <path id="P" d="M322.4,59.3c-.3-4.7,3.2-6.9,7.7-5.6v-4.7c0,0-1.2-.3-1.2-.3v-.8h4.6v15.9l1.2.3v.8h-4.3l-.3-.6c-3.5,2.2-8.4,0-7.7-5ZM330.1,54.8c-2.9-1.1-4.3,1.2-4.1,4.4.1,2.2.2,4.5,2.2,4.5s1.5-.2,2-.5v-8.4"/>
      <path id="Q" d="M334.8,68.3v-1.7h12.6v1.7h-12.6"/>
      <path id="R" d="M354.6,63.7c1,0,2.1-.1,2.9-.4v1c-.7.6-2.1.9-3.5.9-4,0-5.8-1.9-6-5.8-.2-5.1,4.5-6.9,9.2-5.4v3.3h-.9c-.2-1.4-.5-2.7-2.3-2.5-3.5.5-3.7,9.4.6,9.1"/>
      <path id="N1" data-name="N" d="M358.8,59.3c0-3.7,1.5-5.8,5.1-5.8,3.5,0,4.5,2.2,4.3,6h-5.8c0,2.5.4,4.3,3,4.3,1,0,1.9-.3,2.6-.4.2,1.9-1.9,1.7-3.7,1.8-3.9.3-5.4-2.1-5.4-5.8ZM365,58.1c.1-1.8,0-4.3-1.8-3.3-.7.6-.7,1.9-.7,3.3h2.6"/>
      <path id="S" d="M374,63.8l1.2.3v.8h-5.9v-.8l1.2-.3v-14.8l-1.2-.3v-.8h4.6v15.9"/>
      <path id="S1" data-name="S" d="M380.8,63.8l1.2.3v.8h-5.9v-.8l1.2-.3v-14.8l-1.2-.3v-.8h4.6v15.9"/>
      <path id="T" d="M389.3,55.2c-1-1.2-4.6-1-3.7,1.2,1.6,1.8,5.6,1.2,5.6,4.9s-4.9,4.2-8.1,3.2v-3.1h.8c.3,1.6,1.1,2.5,2.9,2.5s2.6-2.5.6-3.1c-2.1-.6-4.4-1.3-4.3-4.1,0-3.5,4-3.7,7.3-3.1v2.9h-.7"/>
    </g>
    <path class="st1" d="M20,163.7h144v102c-24-17-39-17-48.1-17-14.4,0-33.5,17-47.9,17s-24.1,0-47.9-17v-85Z"/>
    <path class="st0" d="M28,172.7h144v102c-24-17-39-17-48.1-17-14.4,0-33.5,17-47.9,17s-24.1,0-47.9-17v-85Z"/>
    <path class="st2" d="M36,181.7h144v102c-24-17-39-17-48.1-17-14.4,0-33.5,17-48,17s-24.1,0-47.9-17v-85Z"/>
    <g id="f">
      <path id="U" d="M76.3,214.4h-.5l-5.8-13.8v12.8l2.2.3v.6h-5.5v-.6l2.1-.3v-14.1l-2.1-.3v-.7h4.9l5.2,12.2,5.7-12.2h4.6v.7l-2.1.3v14.1l2.1.3v.6h-6.5v-.6l2.2-.3v-12.8"/>
      <path id="V" d="M96.1,213.5c-2.4,1.4-6.7,1.9-6.7-2.2v-7.3c-.5-.2-1.6.1-1.4-.8h3.4v8c-.2,2.5,2.9,2.2,4.7,1.7v-8.9l-1.7-.3v-.5h3.7v10.4c.5.2,1.6-.1,1.4.8h-3.3"/>
      <path id="W" d="M104.3,213.6l1.9.3v.5h-5.8v-.5l1.9-.3v-15.3l-1.9-.3v-.5h3.9v16.2"/>
      <path id="X" d="M110.3,211.8c0,1.7,1.6,1.8,3,1.4v.8c-1.8,1.1-5,1-5-2v-7.8h-1.4c-.1-1,1-.7,1.4-1l1.2-2.6h.7v2.6h2.6v1h-2.6v7.6"/>
      <path id="Y" d="M116.7,200.8c-1.6,0-1.7-2.6,0-2.6.9,0,1.2.5,1.4,1.3,0,.7-.5,1.3-1.4,1.3ZM117.9,213.6l1.9.3v.5h-5.8v-.5l1.9-.3v-9.6l-1.6-.3v-.5h3.6v10.4"/>
      <path id="Z" d="M131.5,208.6c.2,4.5-3,6.9-7.5,5.8v4.3c0,0,2,.3,2,.3v.6h-5.4v-.6l1.4-.3v-14.7c-.5-.2-1.5,0-1.3-.8h3.1v.6c.8-.5,1.8-1,3.1-1,3.2.1,4.3,2.4,4.5,5.8ZM124.1,213.5c3.6,1,5.6-1,5.3-4.9.5-3.6-2.2-5.4-5.3-4.1v9"/>
      <path id="W1" data-name="W" d="M136.9,213.6l1.9.3v.5h-5.8v-.5l1.9-.3v-15.3l-1.9-.3v-.5h3.9v16.2"/>
      <path id="aa" d="M145,202.8c3.3,0,4.5,2.2,4.3,5.9h-6.9c-.5,4.1,2.6,5.4,6.5,4.3v.7c-.9.5-2.2,1-3.6,1-3.7,0-5-2.2-5-6,0-3.7,1.5-5.8,4.8-5.8ZM147.2,207.8c.8-3.9-3.9-5.6-4.7-1.6,0,.5-.1,1-.1,1.6h4.8"/>
    </g>
    <g id="g">
      <path id="ab" d="M57.5,242.6c5.9.9,9.1-1.2,9.1-7s-3.5-7.2-9.1-6.8v13.8ZM69.1,235.6c0,8.4-7.3,8.6-16,8.1v-.6l2.1-.3v-14.1l-2.1-.3v-.7h7.3c5.6,0,8.8,2.4,8.8,7.9"/>
      <path id="ac" d="M76.1,232.2c3.5,0,5.2,2.2,5.2,5.9s-1.6,5.9-5.2,5.9-5.1-2.3-5.1-5.9,1.6-5.9,5.2-5.9ZM76.1,243c2.6,0,3.1-2.4,3.1-5s-.5-5-3.1-5c-2.6,0-3,2.3-3,5s.4,4.9,3,5"/>
      <path id="ad" d="M85.3,238c0,4.3,3.5,5.4,7.1,4.3,0,1.7-2,1.7-3.7,1.7-3.8,0-5.4-2.2-5.4-6s4.2-6.7,8.9-5.4v3.1h-.7c-.3-1-.3-2.1-1.6-2.4-3.2-.7-4.5,1.4-4.5,4.7"/>
      <path id="V1" data-name="V" d="M101.4,242.8c-2.4,1.4-6.7,1.9-6.7-2.2v-7.3c-.5-.2-1.6.1-1.4-.8h3.4v8c-.2,2.5,2.9,2.2,4.7,1.7v-8.9l-1.7-.3v-.5h3.7v10.4c.5.2,1.6-.1,1.4.8h-3.3"/>
      <path id="ae" d="M113.8,235.7c.3-2.5-2.9-2.2-4.6-1.7v8.9l1.6.3v.5h-5c-.2-.9.9-.6,1.4-.8v-9.6c-.5-.2-1.6,0-1.4-.8h3.3v.9c1.6-1,5.3-2,6.3.1,2.2-1.5,7.1-2.4,7.1,2v7.4c.5.2,1.6-.1,1.4.8h-5.1v-.5l1.7-.3v-7.2c.2-2.6-3.1-2.1-4.9-1.6.5,2.5,0,6,.2,8.8l1.7.3v.5h-5.3v-.5l1.6-.3v-7.2"/>
      <path id="aa1" data-name="aa" d="M130,232.2c3.3,0,4.5,2.2,4.3,5.9h-6.9c-.5,4.1,2.6,5.4,6.5,4.3v.7c-.9.5-2.2,1-3.6,1-3.7,0-5-2.2-5-6,0-3.7,1.5-5.8,4.8-5.8ZM132.2,237.1c.8-3.9-3.9-5.6-4.7-1.6,0,.5-.1,1-.1,1.6h4.8"/>
      <path id="af" d="M143.5,235.7c.3-2.5-2.8-2.3-4.6-1.8v9l1.6.3v.5h-4.9c-.2-.9.9-.6,1.4-.8v-9.6c-.5-.2-1.6,0-1.4-.8h3.2v.9c2.2-1.6,6.8-2,6.8,2.1v7.4c.5.2,1.6,0,1.4.8h-4.9v-.5l1.5-.3v-7.2"/>
      <path id="X1" data-name="X" d="M150.9,241.1c0,1.7,1.6,1.8,3,1.4v.8c-1.8,1.1-5,1-5-2v-7.8h-1.4c-.1-1,1-.7,1.4-1l1.2-2.6h.7v2.6h2.6v1h-2.6v7.6"/>
      <path id="ag" d="M156.9,234.9c.5,3.3,5.8,1.6,5.8,5.7s-4.7,3.9-7.6,2.8v-2.7c1.4,0,.6,2,2.1,2.1,2.4,1.3,5.2-1.8,2.8-3.4s-4.9-.9-4.9-4,3.9-3.5,6.8-2.8v2.4c-1.3,0-.5-1.7-1.9-1.7-1.4-.5-3.4,0-3.1,1.6"/>
    </g>
    <path class="st7" d="M260,160h160v127.3h-160v-127.3Z"/>
    <g id="i">
      <path id="ab1" data-name="ab" d="M291.3,183.7c5.9.9,9.1-1.2,9.1-7s-3.5-7.2-9.1-6.8v13.8ZM302.9,176.8c0,8.4-7.3,8.6-16,8.1v-.6l2.1-.3v-14.1l-2.1-.3v-.7h7.3c5.6,0,8.8,2.4,8.8,7.9"/>
      <path id="aa2" data-name="aa" d="M309.5,173.3c3.3,0,4.5,2.2,4.3,5.9h-6.9c-.5,4.1,2.6,5.4,6.5,4.3v.7c-.9.5-2.2,1-3.6,1-3.7,0-5-2.2-5-6,0-3.7,1.5-5.8,4.8-5.8ZM311.7,178.3c.8-3.9-3.9-5.6-4.7-1.6,0,.5-.1,1-.1,1.6h4.8"/>
      <path id="X2" data-name="X" d="M318.2,182.3c0,1.7,1.6,1.8,3,1.4v.8c-1.8,1.1-5,1-5-2v-7.8h-1.4c-.1-1,1-.7,1.4-1l1.2-2.6h.7v2.6h2.6v1h-2.6v7.6"/>
      <path id="aa3" data-name="aa" d="M327.1,173.3c3.3,0,4.5,2.2,4.3,5.9h-6.9c-.5,4.1,2.6,5.4,6.5,4.3v.7c-.9.5-2.2,1-3.6,1-3.7,0-5-2.2-5-6,0-3.7,1.5-5.8,4.8-5.8ZM329.3,178.3c.8-3.9-3.9-5.6-4.7-1.6,0,.5-.1,1-.1,1.6h4.8"/>
      <path id="ad1" data-name="ad" d="M335.2,179.2c0,4.3,3.5,5.4,7.1,4.3,0,1.7-2,1.7-3.7,1.7-3.8,0-5.4-2.2-5.4-6s4.2-6.7,8.9-5.4v3.1h-.7c-.3-1-.3-2.1-1.6-2.4-3.2-.7-4.5,1.4-4.5,4.7"/>
      <path id="X3" data-name="X" d="M346.6,182.3c0,1.7,1.6,1.8,3,1.4v.8c-1.8,1.1-5,1-5-2v-7.8h-1.4c-.1-1,1-.7,1.4-1l1.2-2.6h.7v2.6h2.6v1h-2.6v7.6"/>
    </g>
    <g id="j">
      <path id="ah" d="M360.9,177.7v6.2l2.6.3v.6h-6.9v-.6l1.9-.3v-14.1l-2.1-.3v-.7h12v3.9h-.7l-.4-2.6c-1.9-.3-4.3-.2-6.5-.2v6.7h4.7l.3-1.9h.7v5h-.7l-.3-2h-4.7"/>
      <path id="Y1" data-name="Y" d="M372.6,171.3c-1.6,0-1.7-2.6,0-2.6.9,0,1.2.5,1.4,1.3,0,.7-.5,1.3-1.4,1.3ZM373.8,184.1l1.9.3v.5h-5.8v-.5l1.9-.3v-9.6l-1.6-.3v-.5h3.6v10.4"/>
      <path id="W2" data-name="W" d="M380.6,184.1l1.9.3v.5h-5.8v-.5l1.9-.3v-15.3l-1.9-.3v-.5h3.9v16.2"/>
      <path id="aa4" data-name="aa" d="M388.7,173.3c3.3,0,4.5,2.2,4.3,5.9h-6.9c-.5,4.1,2.6,5.4,6.5,4.3v.7c-.9.5-2.2,1-3.6,1-3.7,0-5-2.2-5-6,0-3.7,1.5-5.8,4.8-5.8ZM391,178.3c.8-3.9-3.9-5.6-4.7-1.6,0,.5-.1,1-.1,1.6h4.8"/>
    </g>
    <g id="k">
      <path id="ai" d="M298.9,214.2v-.6l2.6-.3v-14.1c-1.5,0-3.6,0-4.8.3l-.3,2.5h-.7v-3.8h14.1v3.8h-.8l-.3-2.5-4.8-.2v14l2.5.3v.6h-7.4"/>
      <path id="aj" d="M319.2,203.8l-5.2,13c-.7,2-2.4,3.3-5.2,2.6v-2.4c1.2-.1.4,1.6,2,1.4,2-.3,2.6-2.2,3.2-3.9l-4.3-10.5c-.5-.2-1.4,0-1.2-.8h5.2v.5l-1.8.3,3.1,7.9,2.9-7.9-1.8-.3v-.5h4.2v.5"/>
      <path id="Z1" data-name="Z" d="M331.8,208.5c.2,4.5-3,6.9-7.5,5.8v4.3c0,0,2,.3,2,.3v.6h-5.4v-.6l1.4-.3v-14.7c-.5-.2-1.5,0-1.3-.8h3.1v.6c.8-.5,1.8-1,3.1-1,3.2.1,4.3,2.4,4.5,5.8ZM324.3,213.3c3.6,1,5.6-1,5.3-4.9.5-3.6-2.2-5.4-5.3-4.1v9"/>
      <path id="aa5" data-name="aa" d="M338.4,202.7c3.3,0,4.5,2.2,4.3,5.9h-6.9c-.5,4.1,2.6,5.4,6.5,4.3v.7c-.9.5-2.2,1-3.6,1-3.7,0-5-2.2-5-6,0-3.7,1.5-5.8,4.8-5.8ZM340.7,207.6c.8-3.9-3.9-5.6-4.7-1.6,0,.5-.1,1-.1,1.6h4.8"/>
    </g>
    <g id="l">
      <path id="ak" d="M351.8,203.2c2.8-.7,6.9-1,6.9,2.6v7.6c.5.2,1.6-.1,1.4.8h-3.1l-.3-1.2c-1.6,2-7,2-6.3-2-.1-3.4,3.1-3.4,6.2-3.5.3-2.4-.3-4.8-2.9-3.8-.4.1-.8.3-1.1.4-.3.5,0,1.6-1,1.4v-2.4ZM352.5,211c0,2.8,2.8,2.2,4.3,1.5v-4c-2.3,0-4.3,0-4.3,2.5"/>
      <path id="af1" data-name="af" d="M368.9,206.2c.3-2.5-2.8-2.3-4.6-1.8v9l1.6.3v.5h-4.9c-.2-.9.9-.6,1.4-.8v-9.6c-.5-.2-1.6,0-1.4-.8h3.2v.9c2.2-1.6,6.8-2,6.8,2.1v7.4c.5.2,1.6,0,1.4.8h-4.9v-.5l1.5-.3v-7.2"/>
      <path id="al" d="M373.5,208.7c0-4.8,3.1-6.9,7.7-5.8v-4.9c0,0-2-.3-2-.3v-.5h3.9v16.2c.5.2,1.6-.1,1.4.8h-3.2v-.8c-3.3,2.4-7.9.7-7.9-4.7ZM378.8,203.7c-2.5,0-3,2.2-3.1,5,0,2.6.6,4.5,3.1,4.5s1.8-.2,2.4-.5v-8.8c-.7,0-1.6-.2-2.4-.2"/>
    </g>
    <g id="m">
      <path id="am" d="M292.9,242.9v.6h-5.2v-.6l1.8-.3,5.5-15.2h2.2l5.6,15.2,2,.3v.6h-6.7v-.6l2.1-.3-1.6-4.6h-6.3l-1.6,4.6,2.2.3ZM295.5,229.2l-2.8,7.7h5.6"/>
      <path id="X4" data-name="X" d="M308.7,241c0,1.7,1.6,1.8,3,1.4v.8c-1.8,1.1-5,1-5-2v-7.8h-1.4c-.1-1,1-.7,1.4-1l1.2-2.6h.7v2.6h2.6v1h-2.6v7.6"/>
      <path id="X5" data-name="X" d="M315.5,241c0,1.7,1.6,1.8,3,1.4v.8c-1.8,1.1-5,1-5-2v-7.8h-1.4c-.1-1,1-.7,1.4-1l1.2-2.6h.7v2.6h2.6v1h-2.6v7.6"/>
      <path id="aa6" data-name="aa" d="M324.3,232c3.3,0,4.5,2.2,4.3,5.9h-6.9c-.5,4.1,2.6,5.4,6.5,4.3v.7c-.9.5-2.2,1-3.6,1-3.7,0-5-2.2-5-6,0-3.7,1.5-5.8,4.8-5.8ZM326.6,237c.8-3.9-3.9-5.6-4.7-1.6,0,.5-.1,1-.1,1.6h4.8"/>
      <path id="ae1" data-name="ae" d="M338,235.5c.3-2.5-2.9-2.2-4.6-1.7v8.9l1.6.3v.5h-5c-.2-.9.9-.6,1.4-.8v-9.6c-.5-.2-1.6,0-1.4-.8h3.3v.9c1.6-1,5.3-2,6.3.1,2.2-1.5,7.1-2.4,7.1,2v7.4c.5.2,1.6-.1,1.4.8h-5.1v-.5l1.7-.3v-7.2c.2-2.6-3.1-2.1-4.9-1.6.5,2.5,0,6,.2,8.8l1.7.3v.5h-5.3v-.5l1.6-.3v-7.2"/>
      <path id="Z2" data-name="Z" d="M359.7,237.8c.2,4.5-3,6.9-7.5,5.8v4.3c0,0,2,.3,2,.3v.6h-5.4v-.6l1.4-.3v-14.7c-.5-.2-1.5,0-1.3-.8h3.1v.6c.8-.5,1.8-1,3.1-1,3.2.1,4.3,2.4,4.5,5.8ZM352.2,242.7c3.6,1,5.6-1,5.3-4.9.5-3.6-2.2-5.4-5.3-4.1v9"/>
      <path id="X6" data-name="X" d="M364.3,241c0,1.7,1.6,1.8,3,1.4v.8c-1.8,1.1-5,1-5-2v-7.8h-1.4c-.1-1,1-.7,1.4-1l1.2-2.6h.7v2.6h2.6v1h-2.6v7.6"/>
    </g>
    <g id="n">
      <path id="X7" data-name="X" d="M377.2,241c0,1.7,1.6,1.8,3,1.4v.8c-1.8,1.1-5,1-5-2v-7.8h-1.4c-.1-1,1-.7,1.4-1l1.2-2.6h.7v2.6h2.6v1h-2.6v7.6"/>
      <path id="ac1" data-name="ac" d="M386.4,232c3.5,0,5.2,2.2,5.2,5.9s-1.6,5.9-5.2,5.9-5.1-2.3-5.1-5.9,1.6-5.9,5.2-5.9ZM386.4,242.9c2.6,0,3.1-2.4,3.1-5s-.5-5-3.1-5c-2.6,0-3,2.3-3,5s.4,4.9,3,5"/>
    </g>
    <g id="o">
      <path id="an" d="M328.5,261.1c0,2.4-1.4,3.8-3.3,4.4l4.3,6.4,1.8.3v.6h-3.9l-4.5-7h-2.9v6l2.4.3v.6h-6.6v-.6l1.9-.3v-14.1l-2.1-.3v-.7c5.4.3,12.9-1.4,12.8,4.3ZM320,264.8c3.4.1,6,0,6-3.5s-2.6-3.5-6-3.4v6.9"/>
      <path id="aa7" data-name="aa" d="M336.9,261.3c3.3,0,4.5,2.2,4.3,5.9h-6.9c-.5,4.1,2.6,5.4,6.5,4.3v.7c-.9.5-2.2,1-3.6,1-3.7,0-5-2.2-5-6,0-3.7,1.5-5.8,4.8-5.8ZM339.2,266.3c.8-3.9-3.9-5.6-4.7-1.6,0,.5-.1,1-.1,1.6h4.8"/>
      <path id="ak1" data-name="ak" d="M344.2,261.8c2.8-.7,6.9-1,6.9,2.6v7.6c.5.2,1.6-.1,1.4.8h-3.1l-.3-1.2c-1.6,2-7,2-6.3-2-.1-3.4,3.1-3.4,6.2-3.5.3-2.4-.3-4.8-2.9-3.8-.4.1-.8.3-1.1.4-.3.5,0,1.6-1,1.4v-2.4ZM344.9,269.7c0,2.8,2.8,2.2,4.3,1.5v-4c-2.3,0-4.3,0-4.3,2.5"/>
      <path id="al1" data-name="al" d="M353.7,267.4c0-4.8,3.1-6.9,7.7-5.8v-4.9c0,0-2-.3-2-.3v-.5h3.9v16.2c.5.2,1.6-.1,1.4.8h-3.2v-.8c-3.3,2.4-7.9.7-7.9-4.7ZM358.9,262.4c-2.5,0-3,2.2-3.1,5,0,2.6.6,4.5,3.1,4.5s1.8-.2,2.4-.5v-8.8c-.7,0-1.6-.2-2.4-.2"/>
    </g>
    <path class="st13" d="M292,347.3h96l32,60-32,60h-96l-32-60,32-60Z"/>
    <g id="q">
      <path id="ao" d="M286.3,375.1c0,6.3,5.4,8.8,10.2,5.9l.5-2.4h.7v3.7c-1.6.5-3.6.8-5.7.8-5.2,0-7.9-2.8-8.2-8.1-.3-7.7,6.6-9.6,13.6-7.7v3.5c0,0-.7,0-.7,0l-.3-2c-1-.6-2.6-1.1-4.2-1.1-4.5,0-5.8,2.8-5.8,7.4"/>
      <path id="ac2" data-name="ac" d="M305.1,371.3c3.5,0,5.2,2.2,5.2,5.9s-1.6,5.9-5.2,5.9-5.1-2.3-5.1-5.9,1.6-5.9,5.2-5.9ZM305.1,382.2c2.6,0,3.1-2.4,3.1-5s-.5-5-3.1-5c-2.6,0-3,2.3-3,5s.4,4.9,3,5"/>
      <path id="af2" data-name="af" d="M319.7,374.9c.3-2.5-2.8-2.3-4.6-1.8v9l1.6.3v.5h-4.9c-.2-.9.9-.6,1.4-.8v-9.6c-.5-.2-1.6,0-1.4-.8h3.2v.9c2.2-1.6,6.8-2,6.8,2.1v7.4c.5.2,1.6,0,1.4.8h-4.9v-.5l1.5-.3v-7.2"/>
      <path id="ap" d="M334.6,372.4l-4.5,10.7h-.9l-4.6-10.7c-.5-.2-1.4,0-1.2-.8h5.2v.5l-1.8.3,3.3,7.8,3.1-7.8-1.8-.3v-.5h4.1v.5"/>
      <path id="aa8" data-name="aa" d="M341.4,371.3c3.3,0,4.5,2.2,4.3,5.9h-6.9c-.5,4.1,2.6,5.4,6.5,4.3v.7c-.9.5-2.2,1-3.6,1-3.7,0-5-2.2-5-6,0-3.7,1.5-5.8,4.8-5.8ZM343.6,376.3c.8-3.9-3.9-5.6-4.7-1.6,0,.5-.1,1-.1,1.6h4.8"/>
      <path id="aq" d="M350.4,373c1.1-.7,2.4-1.6,4.1-1.7v3.1c-1.3,0-.5-2-2.7-1.2l-1.4.4v8.4l2,.3v.5h-5.4v-.5l1.4-.3v-9.6c-.5-.2-1.6.1-1.4-.8h3.3"/>
      <path id="X8" data-name="X" d="M358.2,380.3c0,1.7,1.6,1.8,3,1.4v.8c-1.8,1.1-5,1-5-2v-7.8h-1.4c-.1-1,1-.7,1.4-1l1.2-2.6h.7v2.6h2.6v1h-2.6v7.6"/>
    </g>
    <g id="r">
      <path id="X9" data-name="X" d="M371.1,380.3c0,1.7,1.6,1.8,3,1.4v.8c-1.8,1.1-5,1-5-2v-7.8h-1.4c-.1-1,1-.7,1.4-1l1.2-2.6h.7v2.6h2.6v1h-2.6v7.6"/>
      <path id="ar" d="M382.8,374.8c.2-2.6-2.9-2.1-4.7-1.7v9l1.6.3v.5h-5v-.5l1.4-.3v-15.3l-1.6-.3v-.5h3.6v6.7c2-1.5,6.7-2.1,6.7,2.1v7.4c.5.2,1.6,0,1.4.8h-4.8v-.5l1.5-.3v-7.3"/>
      <path id="aa9" data-name="aa" d="M392.2,371.3c3.3,0,4.5,2.2,4.3,5.9h-6.9c-.5,4.1,2.6,5.4,6.5,4.3v.7c-.9.5-2.2,1-3.6,1-3.7,0-5-2.2-5-6,0-3.7,1.5-5.8,4.8-5.8ZM394.4,376.3c.8-3.9-3.9-5.6-4.7-1.6,0,.5-.1,1-.1,1.6h4.8"/>
    </g>
    <g id="s">
      <path id="as" d="M279.2,396.2c-2.6-1-2.4,2.2-2.3,4.8h3v1h-3v9.2l2.4.4v.5h-6v-.5l1.7-.4v-9.2h-2v-.6l2-.5c-.4-4,1.6-6.8,5.4-5.7v2.4c-1,.1-.8-1-1.2-1.5"/>
      <path id="Y2" data-name="Y" d="M283.5,398.6c-1.6,0-1.7-2.6,0-2.6.9,0,1.2.5,1.4,1.3,0,.7-.5,1.3-1.4,1.3ZM284.7,411.4l1.9.3v.5h-5.8v-.5l1.9-.3v-9.6l-1.6-.3v-.5h3.6v10.4"/>
      <path id="W3" data-name="W" d="M291.5,411.4l1.9.3v.5h-5.8v-.5l1.9-.3v-15.3l-1.9-.3v-.5h3.9v16.2"/>
      <path id="aa10" data-name="aa" d="M299.6,400.7c3.3,0,4.5,2.2,4.3,5.9h-6.9c-.5,4.1,2.6,5.4,6.5,4.3v.7c-.9.5-2.2,1-3.6,1-3.7,0-5-2.2-5-6,0-3.7,1.5-5.8,4.8-5.8ZM301.8,405.6c.8-3.9-3.9-5.6-4.7-1.6,0,.5-.1,1-.1,1.6h4.8"/>
    </g>
    <g id="t">
      <path id="ad2" data-name="ad" d="M313.9,406.5c0,4.3,3.5,5.4,7.1,4.3,0,1.7-2,1.7-3.7,1.7-3.8,0-5.4-2.2-5.4-6s4.2-6.7,8.9-5.4v3.1h-.7c-.3-1-.3-2.1-1.6-2.4-3.2-.7-4.5,1.4-4.5,4.7"/>
      <path id="ac3" data-name="ac" d="M327.7,400.7c3.5,0,5.2,2.2,5.2,5.9s-1.6,5.9-5.2,5.9-5.1-2.3-5.1-5.9,1.6-5.9,5.2-5.9ZM327.6,411.5c2.6,0,3.1-2.4,3.1-5s-.5-5-3.1-5c-2.6,0-3,2.3-3,5s.4,4.9,3,5"/>
      <path id="af3" data-name="af" d="M342.3,404.2c.3-2.5-2.8-2.3-4.6-1.8v9l1.6.3v.5h-4.9c-.2-.9.9-.6,1.4-.8v-9.6c-.5-.2-1.6,0-1.4-.8h3.2v.9c2.2-1.6,6.8-2,6.8,2.1v7.4c.5.2,1.6,0,1.4.8h-4.9v-.5l1.5-.3v-7.2"/>
      <path id="X10" data-name="X" d="M349.7,409.6c0,1.7,1.6,1.8,3,1.4v.8c-1.8,1.1-5,1-5-2v-7.8h-1.4c-.1-1,1-.7,1.4-1l1.2-2.6h.7v2.6h2.6v1h-2.6v7.6"/>
      <path id="aa11" data-name="aa" d="M358.5,400.7c3.3,0,4.5,2.2,4.3,5.9h-6.9c-.5,4.1,2.6,5.4,6.5,4.3v.7c-.9.5-2.2,1-3.6,1-3.7,0-5-2.2-5-6,0-3.7,1.5-5.8,4.8-5.8ZM360.8,405.6c.8-3.9-3.9-5.6-4.7-1.6,0,.5-.1,1-.1,1.6h4.8"/>
      <path id="af4" data-name="af" d="M372.1,404.2c.3-2.5-2.8-2.3-4.6-1.8v9l1.6.3v.5h-4.9c-.2-.9.9-.6,1.4-.8v-9.6c-.5-.2-1.6,0-1.4-.8h3.2v.9c2.2-1.6,6.8-2,6.8,2.1v7.4c.5.2,1.6,0,1.4.8h-4.9v-.5l1.5-.3v-7.2"/>
      <path id="X11" data-name="X" d="M379.5,409.6c0,1.7,1.6,1.8,3,1.4v.8c-1.8,1.1-5,1-5-2v-7.8h-1.4c-.1-1,1-.7,1.4-1l1.2-2.6h.7v2.6h2.6v1h-2.6v7.6"/>
    </g>
    <g id="u">
      <path id="X12" data-name="X" d="M392.4,409.6c0,1.7,1.6,1.8,3,1.4v.8c-1.8,1.1-5,1-5-2v-7.8h-1.4c-.1-1,1-.7,1.4-1l1.2-2.6h.7v2.6h2.6v1h-2.6v7.6"/>
      <path id="ac4" data-name="ac" d="M401.7,400.7c3.5,0,5.2,2.2,5.2,5.9s-1.6,5.9-5.2,5.9-5.1-2.3-5.1-5.9,1.6-5.9,5.2-5.9ZM401.6,411.5c2.6,0,3.1-2.4,3.1-5s-.5-5-3.1-5c-2.6,0-3,2.3-3,5s.4,4.9,3,5"/>
    </g>
    <g id="v">
      <path id="R1" data-name="R" d="M312.9,440.3c1,0,2.1-.1,2.9-.4v1c-.7.6-2.1.9-3.5.9-4,0-5.8-1.9-6-5.8-.2-5.1,4.5-6.9,9.2-5.4v3.3h-.9c-.2-1.4-.5-2.7-2.3-2.5-3.5.5-3.7,9.4.6,9.1"/>
      <path id="N2" data-name="N" d="M317.1,435.9c0-3.7,1.5-5.8,5.1-5.8,3.5,0,4.5,2.2,4.3,6h-5.8c0,2.5.4,4.3,3,4.3,1,0,1.9-.3,2.6-.4.2,1.9-1.9,1.7-3.7,1.8-3.9.3-5.4-2.1-5.4-5.8ZM323.2,434.8c.1-1.8,0-4.3-1.8-3.3-.7.6-.7,1.9-.7,3.3h2.6"/>
      <path id="S2" data-name="S" d="M332.2,440.5l1.2.3v.8h-5.9v-.8l1.2-.3v-14.8l-1.2-.3v-.8h4.6v15.9"/>
      <path id="S3" data-name="S" d="M339,440.5l1.2.3v.8h-5.9v-.8l1.2-.3v-14.8l-1.2-.3v-.8h4.6v15.9"/>
      <path id="Q1" data-name="Q" d="M340.4,445v-1.7h12.6v1.7h-12.6"/>
      <path id="P1" data-name="P" d="M353.9,436c-.3-4.7,3.2-6.9,7.7-5.6v-4.7c0,0-1.2-.3-1.2-.3v-.8h4.6v15.9l1.2.3v.8h-4.3l-.3-.6c-3.5,2.2-8.4,0-7.7-5ZM361.5,431.5c-2.9-1.1-4.3,1.2-4.1,4.4.1,2.2.2,4.5,2.2,4.5s1.5-.2,2-.5v-8.4"/>
      <path id="at" d="M373.7,425.9c-2.1-.9-2,2-2,4.4h2.3v1.2h-2.3v8.9l1.8.3v.8h-6.5v-.8l1.2-.3v-8.9h-1.7v-.8l1.7-.5c-.5-4.5,2.1-6.7,6.5-5.7v2.6h-.7"/>
    </g>
    <path class="st22" d="M260,527.3h160v120h-160v-120Z"/>
    <g id="x">
      <path id="au" d="M282.6,561.5v.7l-1.8.3-6.5,15.4h-.6l-6.5-15.4-1.8-.3v-.7h6.5v.7l-2.1.3,4.8,11.8,4.8-11.8-2.1-.3v-.7h5.2"/>
      <path id="ak2" data-name="ak" d="M282.2,566.5c2.8-.7,6.9-1,6.9,2.6v7.6c.5.2,1.6-.1,1.4.8h-3.1l-.3-1.2c-1.6,2-7,2-6.3-2-.1-3.4,3.1-3.4,6.2-3.5.3-2.4-.3-4.8-2.9-3.8-.4.1-.8.3-1.1.4-.3.5,0,1.6-1,1.4v-2.4ZM282.9,574.4c0,2.8,2.8,2.2,4.3,1.5v-4c-2.3,0-4.3,0-4.3,2.5"/>
      <path id="W4" data-name="W" d="M295.3,576.7l1.9.3v.5h-5.8v-.5l1.9-.3v-15.3l-1.9-.3v-.5h3.9v16.2"/>
      <path id="V2" data-name="V" d="M306,576.7c-2.4,1.4-6.7,1.9-6.7-2.2v-7.3c-.5-.2-1.6.1-1.4-.8h3.4v8c-.2,2.5,2.9,2.2,4.7,1.7v-8.9l-1.7-.3v-.5h3.7v10.4c.5.2,1.6-.1,1.4.8h-3.3"/>
      <path id="aa12" data-name="aa" d="M315.6,566c3.3,0,4.5,2.2,4.3,5.9h-6.9c-.5,4.1,2.6,5.4,6.5,4.3v.7c-.9.5-2.2,1-3.6,1-3.7,0-5-2.2-5-6,0-3.7,1.5-5.8,4.8-5.8ZM317.8,571c.8-3.9-3.9-5.6-4.7-1.6,0,.5-.1,1-.1,1.6h4.8"/>
    </g>
    <g id="y">
      <path id="am1" data-name="am" d="M332.3,576.9v.6h-5.2v-.6l1.8-.3,5.5-15.2h2.2l5.6,15.2,2,.3v.6h-6.7v-.6l2.1-.3-1.6-4.6h-6.3l-1.6,4.6,2.2.3ZM334.8,563.2l-2.8,7.7h5.6"/>
      <path id="X13" data-name="X" d="M348,575c0,1.7,1.6,1.8,3,1.4v.8c-1.8,1.1-5,1-5-2v-7.8h-1.4c-.1-1,1-.7,1.4-1l1.2-2.6h.7v2.6h2.6v1h-2.6v7.6"/>
      <path id="X14" data-name="X" d="M354.8,575c0,1.7,1.6,1.8,3,1.4v.8c-1.8,1.1-5,1-5-2v-7.8h-1.4c-.1-1,1-.7,1.4-1l1.2-2.6h.7v2.6h2.6v1h-2.6v7.6"/>
      <path id="aq1" data-name="aq" d="M361.8,567.7c1.1-.7,2.4-1.6,4.1-1.7v3.1c-1.3,0-.5-2-2.7-1.2l-1.4.4v8.4l2,.3v.5h-5.4v-.5l1.4-.3v-9.6c-.5-.2-1.6.1-1.4-.8h3.3"/>
      <path id="Y3" data-name="Y" d="M369.2,564c-1.6,0-1.7-2.6,0-2.6.9,0,1.2.5,1.4,1.3,0,.7-.5,1.3-1.4,1.3ZM370.4,576.7l1.9.3v.5h-5.8v-.5l1.9-.3v-9.6l-1.6-.3v-.5h3.6v10.4"/>
      <path id="av" d="M376.4,576.6c3.9.8,5.6-1,5.6-5s-2.4-5.2-5.6-3.9v8.9ZM378.8,577.8c-1.7,0-3.2-.4-4.4-.9v-15.5l-1.6-.3v-.5h3.6v6.4c3.2-2.2,7.7-.3,7.7,4.7s-1.6,6.2-5.2,6.2"/>
      <path id="V3" data-name="V" d="M393.4,576.7c-2.4,1.4-6.7,1.9-6.7-2.2v-7.3c-.5-.2-1.6.1-1.4-.8h3.4v8c-.2,2.5,2.9,2.2,4.7,1.7v-8.9l-1.7-.3v-.5h3.7v10.4c.5.2,1.6-.1,1.4.8h-3.3"/>
      <path id="X15" data-name="X" d="M400.9,575c0,1.7,1.6,1.8,3,1.4v.8c-1.8,1.1-5,1-5-2v-7.8h-1.4c-.1-1,1-.7,1.4-1l1.2-2.6h.7v2.6h2.6v1h-2.6v7.6"/>
      <path id="aa13" data-name="aa" d="M409.7,566c3.3,0,4.5,2.2,4.3,5.9h-6.9c-.5,4.1,2.6,5.4,6.5,4.3v.7c-.9.5-2.2,1-3.6,1-3.7,0-5-2.2-5-6,0-3.7,1.5-5.8,4.8-5.8ZM412,571c.8-3.9-3.9-5.6-4.7-1.6,0,.5-.1,1-.1,1.6h4.8"/>
    </g>
    <g id="z">
      <path id="ao1" data-name="ao" d="M276.4,599.1c0,6.3,5.4,8.8,10.2,5.9l.5-2.4h.7v3.7c-1.6.5-3.6.8-5.7.8-5.2,0-7.9-2.8-8.2-8.1-.3-7.7,6.6-9.6,13.6-7.7v3.5c0,0-.7,0-.7,0l-.3-2c-1-.6-2.6-1.1-4.2-1.1-4.5,0-5.8,2.8-5.8,7.4"/>
      <path id="W5" data-name="W" d="M293.6,606.1l1.9.3v.5h-5.8v-.5l1.9-.3v-15.3l-1.9-.3v-.5h3.9v16.2"/>
      <path id="ak3" data-name="ak" d="M298.2,595.8c2.8-.7,6.9-1,6.9,2.6v7.6c.5.2,1.6-.1,1.4.8h-3.1l-.3-1.2c-1.6,2-7,2-6.3-2-.1-3.4,3.1-3.4,6.2-3.5.3-2.4-.3-4.8-2.9-3.8-.4.1-.8.3-1.1.4-.3.5,0,1.6-1,1.4v-2.4ZM298.9,603.7c0,2.8,2.8,2.2,4.3,1.5v-4c-2.3,0-4.3,0-4.3,2.5"/>
      <path id="ag1" data-name="ag" d="M309.6,598.1c.5,3.3,5.8,1.6,5.8,5.7s-4.7,3.9-7.6,2.8v-2.7c1.4,0,.6,2,2.1,2.1,2.4,1.3,5.2-1.8,2.8-3.4s-4.9-.9-4.9-4,3.9-3.5,6.8-2.8v2.4c-1.3,0-.5-1.7-1.9-1.7-1.4-.5-3.4,0-3.1,1.6"/>
      <path id="ag2" data-name="ag" d="M319.1,598.1c.5,3.3,5.8,1.6,5.8,5.7s-4.7,3.9-7.6,2.8v-2.7c1.4,0,.6,2,2.1,2.1,2.4,1.3,5.2-1.8,2.8-3.4s-4.9-.9-4.9-4,3.9-3.5,6.8-2.8v2.4c-1.3,0-.5-1.7-1.9-1.7-1.4-.5-3.4,0-3.1,1.6"/>
      <path id="Y4" data-name="Y" d="M329,593.3c-1.6,0-1.7-2.6,0-2.6.9,0,1.2.5,1.4,1.3,0,.7-.5,1.3-1.4,1.3ZM330.2,606.1l1.9.3v.5h-5.8v-.5l1.9-.3v-9.6l-1.6-.3v-.5h3.6v10.4"/>
      <path id="as1" data-name="as" d="M339.6,590.9c-2.6-1-2.4,2.2-2.3,4.8h3v1h-3v9.2l2.4.4v.5h-6v-.5l1.7-.4v-9.2h-2v-.6l2-.5c-.4-4,1.6-6.8,5.4-5.7v2.4c-1,.1-.8-1-1.2-1.5"/>
      <path id="Y5" data-name="Y" d="M343.9,593.3c-1.6,0-1.7-2.6,0-2.6.9,0,1.2.5,1.4,1.3,0,.7-.5,1.3-1.4,1.3ZM345.1,606.1l1.9.3v.5h-5.8v-.5l1.9-.3v-9.6l-1.6-.3v-.5h3.6v10.4"/>
      <path id="ad3" data-name="ad" d="M350.5,601.2c0,4.3,3.5,5.4,7.1,4.3,0,1.7-2,1.7-3.7,1.7-3.8,0-5.4-2.2-5.4-6s4.2-6.7,8.9-5.4v3.1h-.7c-.3-1-.3-2.1-1.6-2.4-3.2-.7-4.5,1.4-4.5,4.7"/>
      <path id="ak4" data-name="ak" d="M360.4,595.8c2.8-.7,6.9-1,6.9,2.6v7.6c.5.2,1.6-.1,1.4.8h-3.1l-.3-1.2c-1.6,2-7,2-6.3-2-.1-3.4,3.1-3.4,6.2-3.5.3-2.4-.3-4.8-2.9-3.8-.4.1-.8.3-1.1.4-.3.5,0,1.6-1,1.4v-2.4ZM361.1,603.7c0,2.8,2.8,2.2,4.3,1.5v-4c-2.3,0-4.3,0-4.3,2.5"/>
      <path id="X16" data-name="X" d="M372.7,604.3c0,1.7,1.6,1.8,3,1.4v.8c-1.8,1.1-5,1-5-2v-7.8h-1.4c-.1-1,1-.7,1.4-1l1.2-2.6h.7v2.6h2.6v1h-2.6v7.6"/>
      <path id="Y6" data-name="Y" d="M379,593.3c-1.6,0-1.7-2.6,0-2.6.9,0,1.2.5,1.4,1.3,0,.7-.5,1.3-1.4,1.3ZM380.3,606.1l1.9.3v.5h-5.8v-.5l1.9-.3v-9.6l-1.6-.3v-.5h3.6v10.4"/>
      <path id="ac5" data-name="ac" d="M388.8,595.3c3.5,0,5.2,2.2,5.2,5.9s-1.6,5.9-5.2,5.9-5.1-2.3-5.1-5.9,1.6-5.9,5.2-5.9ZM388.7,606.2c2.6,0,3.1-2.4,3.1-5s-.5-5-3.1-5c-2.6,0-3,2.3-3,5s.4,4.9,3,5"/>
      <path id="af5" data-name="af" d="M403.4,598.9c.3-2.5-2.8-2.3-4.6-1.8v9l1.6.3v.5h-4.9c-.2-.9.9-.6,1.4-.8v-9.6c-.5-.2-1.6,0-1.4-.8h3.2v.9c2.2-1.6,6.8-2,6.8,2.1v7.4c.5.2,1.6,0,1.4.8h-4.9v-.5l1.5-.3v-7.2"/>
    </g>
    <path class="st4" d="M532,527.3h96l32,60-32,60h-96l-32-60,32-60Z"/>
    <g id="B">
      <path id="am2" data-name="am" d="M526.9,576.9v.6h-5.2v-.6l1.8-.3,5.5-15.2h2.2l5.6,15.2,2,.3v.6h-6.7v-.6l2.1-.3-1.6-4.6h-6.3l-1.6,4.6,2.2.3ZM529.5,563.2l-2.8,7.7h5.6"/>
      <path id="af6" data-name="af" d="M547.5,569.5c.3-2.5-2.8-2.3-4.6-1.8v9l1.6.3v.5h-4.9c-.2-.9.9-.6,1.4-.8v-9.6c-.5-.2-1.6,0-1.4-.8h3.2v.9c2.2-1.6,6.8-2,6.8,2.1v7.4c.5.2,1.6,0,1.4.8h-4.9v-.5l1.5-.3v-7.2"/>
      <path id="ak5" data-name="ak" d="M553.4,566.5c2.8-.7,6.9-1,6.9,2.6v7.6c.5.2,1.6-.1,1.4.8h-3.1l-.3-1.2c-1.6,2-7,2-6.3-2-.1-3.4,3.1-3.4,6.2-3.5.3-2.4-.3-4.8-2.9-3.8-.4.1-.8.3-1.1.4-.3.5,0,1.6-1,1.4v-2.4ZM554.1,574.4c0,2.8,2.8,2.2,4.3,1.5v-4c-2.3,0-4.3,0-4.3,2.5"/>
      <path id="W6" data-name="W" d="M566.5,576.7l1.9.3v.5h-5.8v-.5l1.9-.3v-15.3l-1.9-.3v-.5h3.9v16.2"/>
      <path id="aj1" data-name="aj" d="M579.8,567.1l-5.2,13c-.7,2-2.4,3.3-5.2,2.6v-2.4c1.2-.1.4,1.6,2,1.4,2-.3,2.6-2.2,3.2-3.9l-4.3-10.5c-.5-.2-1.4,0-1.2-.8h5.2v.5l-1.8.3,3.1,7.9,2.9-7.9-1.8-.3v-.5h4.2v.5"/>
      <path id="aw" d="M581.7,577.6v-.5l6.1-9.7c-1.6.1-3.7-.3-4.8.4-.3.5,0,1.8-1,1.6v-3h8.3v.5l-6.2,9.7c2-.1,4.4.2,5.8-.5l.6-2.4h.5l-.3,3.9h-9.2"/>
      <path id="aa14" data-name="aa" d="M597.6,566c3.3,0,4.5,2.2,4.3,5.9h-6.9c-.5,4.1,2.6,5.4,6.5,4.3v.7c-.9.5-2.2,1-3.6,1-3.7,0-5-2.2-5-6,0-3.7,1.5-5.8,4.8-5.8ZM599.8,571c.8-3.9-3.9-5.6-4.7-1.6,0,.5-.1,1-.1,1.6h4.8"/>
    </g>
    <g id="r1" data-name="r">
      <path id="X17" data-name="X" d="M612.4,575c0,1.7,1.6,1.8,3,1.4v.8c-1.8,1.1-5,1-5-2v-7.8h-1.4c-.1-1,1-.7,1.4-1l1.2-2.6h.7v2.6h2.6v1h-2.6v7.6"/>
      <path id="ar1" data-name="ar" d="M624.1,569.5c.2-2.6-2.9-2.1-4.7-1.7v9l1.6.3v.5h-5v-.5l1.4-.3v-15.3l-1.6-.3v-.5h3.6v6.7c2-1.5,6.7-2.1,6.7,2.1v7.4c.5.2,1.6,0,1.4.8h-4.8v-.5l1.5-.3v-7.3"/>
      <path id="aa15" data-name="aa" d="M633.5,566c3.3,0,4.5,2.2,4.3,5.9h-6.9c-.5,4.1,2.6,5.4,6.5,4.3v.7c-.9.5-2.2,1-3.6,1-3.7,0-5-2.2-5-6,0-3.7,1.5-5.8,4.8-5.8ZM635.7,571c.8-3.9-3.9-5.6-4.7-1.6,0,.5-.1,1-.1,1.6h4.8"/>
    </g>
    <g id="C">
      <path id="ao2" data-name="ao" d="M558.4,599.1c0,6.3,5.4,8.8,10.2,5.9l.5-2.4h.7v3.7c-1.6.5-3.6.8-5.7.8-5.2,0-7.9-2.8-8.2-8.1-.3-7.7,6.6-9.6,13.6-7.7v3.5c0,0-.7,0-.7,0l-.3-2c-1-.6-2.6-1.1-4.2-1.1-4.5,0-5.8,2.8-5.8,7.4"/>
      <path id="aa16" data-name="aa" d="M576.9,595.3c3.3,0,4.5,2.2,4.3,5.9h-6.9c-.5,4.1,2.6,5.4,6.5,4.3v.7c-.9.5-2.2,1-3.6,1-3.7,0-5-2.2-5-6,0-3.7,1.5-5.8,4.8-5.8ZM579.2,600.3c.8-3.9-3.9-5.6-4.7-1.6,0,.5-.1,1-.1,1.6h4.8"/>
      <path id="W7" data-name="W" d="M586.4,606.1l1.9.3v.5h-5.8v-.5l1.9-.3v-15.3l-1.9-.3v-.5h3.9v16.2"/>
      <path id="W8" data-name="W" d="M593.2,606.1l1.9.3v.5h-5.8v-.5l1.9-.3v-15.3l-1.9-.3v-.5h3.9v16.2"/>
      <path id="ag3" data-name="ag" d="M598.4,598.1c.5,3.3,5.8,1.6,5.8,5.7s-4.7,3.9-7.6,2.8v-2.7c1.4,0,.6,2,2.1,2.1,2.4,1.3,5.2-1.8,2.8-3.4s-4.9-.9-4.9-4,3.9-3.5,6.8-2.8v2.4c-1.3,0-.5-1.7-1.9-1.7-1.4-.5-3.4,0-3.1,1.6"/>
    </g>
    <path class="st25" d="M500,347.3h160v120h-160v-120Z"/>
    <g id="E">
      <path id="ao3" data-name="ao" d="M509.2,404.4c0,6.3,5.4,8.8,10.2,5.9l.5-2.4h.7v3.7c-1.6.5-3.6.8-5.7.8-5.2,0-7.9-2.8-8.2-8.1-.3-7.7,6.6-9.6,13.6-7.7v3.5c0,0-.7,0-.7,0l-.3-2c-1-.6-2.6-1.1-4.2-1.1-4.5,0-5.8,2.8-5.8,7.4"/>
      <path id="ac6" data-name="ac" d="M528.1,400.7c3.5,0,5.2,2.2,5.2,5.9s-1.6,5.9-5.2,5.9-5.1-2.3-5.1-5.9,1.6-5.9,5.2-5.9ZM528.1,411.5c2.6,0,3.1-2.4,3.1-5s-.5-5-3.1-5c-2.6,0-3,2.3-3,5s.4,4.9,3,5"/>
      <path id="ae2" data-name="ae" d="M542.8,404.2c.3-2.5-2.9-2.2-4.6-1.7v8.9l1.6.3v.5h-5c-.2-.9.9-.6,1.4-.8v-9.6c-.5-.2-1.6,0-1.4-.8h3.3v.9c1.6-1,5.3-2,6.3.1,2.2-1.5,7.1-2.4,7.1,2v7.4c.5.2,1.6-.1,1.4.8h-5.1v-.5l1.7-.3v-7.2c.2-2.6-3.1-2.1-4.9-1.6.5,2.5,0,6,.2,8.8l1.7.3v.5h-5.3v-.5l1.6-.3v-7.2"/>
      <path id="Z3" data-name="Z" d="M564.5,406.5c.2,4.5-3,6.9-7.5,5.8v4.3c0,0,2,.3,2,.3v.6h-5.4v-.6l1.4-.3v-14.7c-.5-.2-1.5,0-1.3-.8h3.1v.6c.8-.5,1.8-1,3.1-1,3.2.1,4.3,2.4,4.5,5.8ZM557,411.3c3.6,1,5.6-1,5.3-4.9.5-3.6-2.2-5.4-5.3-4.1v9"/>
      <path id="ac7" data-name="ac" d="M571.6,400.7c3.5,0,5.2,2.2,5.2,5.9s-1.6,5.9-5.2,5.9-5.1-2.3-5.1-5.9,1.6-5.9,5.2-5.9ZM571.5,411.5c2.6,0,3.1-2.4,3.1-5s-.5-5-3.1-5c-2.6,0-3,2.3-3,5s.4,4.9,3,5"/>
      <path id="ag4" data-name="ag" d="M580.5,403.4c.5,3.3,5.8,1.6,5.8,5.7s-4.7,3.9-7.6,2.8v-2.7c1.4,0,.6,2,2.1,2.1,2.4,1.3,5.2-1.8,2.8-3.4s-4.9-.9-4.9-4,3.9-3.5,6.8-2.8v2.4c-1.3,0-.5-1.7-1.9-1.7-1.4-.5-3.4,0-3.1,1.6"/>
      <path id="aa17" data-name="aa" d="M592.9,400.7c3.3,0,4.5,2.2,4.3,5.9h-6.9c-.5,4.1,2.6,5.4,6.5,4.3v.7c-.9.5-2.2,1-3.6,1-3.7,0-5-2.2-5-6,0-3.7,1.5-5.8,4.8-5.8ZM595.1,405.6c.8-3.9-3.9-5.6-4.7-1.6,0,.5-.1,1-.1,1.6h4.8"/>
    </g>
    <g id="C1" data-name="C">
      <path id="ao4" data-name="ao" d="M607.6,404.4c0,6.3,5.4,8.8,10.2,5.9l.5-2.4h.7v3.7c-1.6.5-3.6.8-5.7.8-5.2,0-7.9-2.8-8.2-8.1-.3-7.7,6.6-9.6,13.6-7.7v3.5c0,0-.7,0-.7,0l-.3-2c-1-.6-2.6-1.1-4.2-1.1-4.5,0-5.8,2.8-5.8,7.4"/>
      <path id="aa18" data-name="aa" d="M626.1,400.7c3.3,0,4.5,2.2,4.3,5.9h-6.9c-.5,4.1,2.6,5.4,6.5,4.3v.7c-.9.5-2.2,1-3.6,1-3.7,0-5-2.2-5-6,0-3.7,1.5-5.8,4.8-5.8ZM628.3,405.6c.8-3.9-3.9-5.6-4.7-1.6,0,.5-.1,1-.1,1.6h4.8"/>
      <path id="W9" data-name="W" d="M635.6,411.4l1.9.3v.5h-5.8v-.5l1.9-.3v-15.3l-1.9-.3v-.5h3.9v16.2"/>
      <path id="W10" data-name="W" d="M642.4,411.4l1.9.3v.5h-5.8v-.5l1.9-.3v-15.3l-1.9-.3v-.5h3.9v16.2"/>
      <path id="ag5" data-name="ag" d="M647.6,403.4c.5,3.3,5.8,1.6,5.8,5.7s-4.7,3.9-7.6,2.8v-2.7c1.4,0,.6,2,2.1,2.1,2.4,1.3,5.2-1.8,2.8-3.4s-4.9-.9-4.9-4,3.9-3.5,6.8-2.8v2.4c-1.3,0-.5-1.7-1.9-1.7-1.4-.5-3.4,0-3.1,1.6"/>
    </g>
    <path class="st19" d="M532,167.3h96l32,60-32,60h-96l-32-60,32-60Z"/>
    <g id="G">
      <path id="ao5" data-name="ao" d="M548.3,209.7c0,6.3,5.4,8.8,10.2,5.9l.5-2.4h.7v3.7c-1.6.5-3.6.8-5.7.8-5.2,0-7.9-2.8-8.2-8.1-.3-7.7,6.6-9.6,13.6-7.7v3.5c0,0-.7,0-.7,0l-.3-2c-1-.6-2.6-1.1-4.2-1.1-4.5,0-5.8,2.8-5.8,7.4"/>
      <path id="ac8" data-name="ac" d="M567.2,206c3.5,0,5.2,2.2,5.2,5.9s-1.6,5.9-5.2,5.9-5.1-2.3-5.1-5.9,1.6-5.9,5.2-5.9ZM567.1,216.9c2.6,0,3.1-2.4,3.1-5s-.5-5-3.1-5c-2.6,0-3,2.3-3,5s.4,4.9,3,5"/>
      <path id="W11" data-name="W" d="M577.7,216.7l1.9.3v.5h-5.8v-.5l1.9-.3v-15.3l-1.9-.3v-.5h3.9v16.2"/>
      <path id="W12" data-name="W" d="M584.5,216.7l1.9.3v.5h-5.8v-.5l1.9-.3v-15.3l-1.9-.3v-.5h3.9v16.2"/>
      <path id="ak6" data-name="ak" d="M589,206.5c2.8-.7,6.9-1,6.9,2.6v7.6c.5.2,1.6-.1,1.4.8h-3.1l-.3-1.2c-1.6,2-7,2-6.3-2-.1-3.4,3.1-3.4,6.2-3.5.3-2.4-.3-4.8-2.9-3.8-.4.1-.8.3-1.1.4-.3.5,0,1.6-1,1.4v-2.4ZM589.7,214.4c0,2.8,2.8,2.2,4.3,1.5v-4c-2.3,0-4.3,0-4.3,2.5"/>
      <path id="X18" data-name="X" d="M601.3,215c0,1.7,1.6,1.8,3,1.4v.8c-1.8,1.1-5,1-5-2v-7.8h-1.4c-.1-1,1-.7,1.4-1l1.2-2.6h.7v2.6h2.6v1h-2.6v7.6"/>
      <path id="aa19" data-name="aa" d="M610.1,206c3.3,0,4.5,2.2,4.3,5.9h-6.9c-.5,4.1,2.6,5.4,6.5,4.3v.7c-.9.5-2.2,1-3.6,1-3.7,0-5-2.2-5-6,0-3.7,1.5-5.8,4.8-5.8ZM612.4,211c.8-3.9-3.9-5.6-4.7-1.6,0,.5-.1,1-.1,1.6h4.8"/>
    </g>
    <g id="H">
      <path id="ao6" data-name="ao" d="M539.4,239.1c0,6.3,5.4,8.8,10.2,5.9l.5-2.4h.7v3.7c-1.6.5-3.6.8-5.7.8-5.2,0-7.9-2.8-8.2-8.1-.3-7.7,6.6-9.6,13.6-7.7v3.5c0,0-.7,0-.7,0l-.3-2c-1-.6-2.6-1.1-4.2-1.1-4.5,0-5.8,2.8-5.8,7.4"/>
      <path id="ac9" data-name="ac" d="M558.3,235.3c3.5,0,5.2,2.2,5.2,5.9s-1.6,5.9-5.2,5.9-5.1-2.3-5.1-5.9,1.6-5.9,5.2-5.9ZM558.2,246.2c2.6,0,3.1-2.4,3.1-5s-.5-5-3.1-5c-2.6,0-3,2.3-3,5s.4,4.9,3,5"/>
      <path id="W13" data-name="W" d="M568.8,246.1l1.9.3v.5h-5.8v-.5l1.9-.3v-15.3l-1.9-.3v-.5h3.9v16.2"/>
      <path id="V4" data-name="V" d="M579.6,246c-2.4,1.4-6.7,1.9-6.7-2.2v-7.3c-.5-.2-1.6.1-1.4-.8h3.4v8c-.2,2.5,2.9,2.2,4.7,1.7v-8.9l-1.7-.3v-.5h3.7v10.4c.5.2,1.6-.1,1.4.8h-3.3"/>
      <path id="ae3" data-name="ae" d="M592,238.9c.3-2.5-2.9-2.2-4.6-1.7v8.9l1.6.3v.5h-5c-.2-.9.9-.6,1.4-.8v-9.6c-.5-.2-1.6,0-1.4-.8h3.3v.9c1.6-1,5.3-2,6.3.1,2.2-1.5,7.1-2.4,7.1,2v7.4c.5.2,1.6-.1,1.4.8h-5.1v-.5l1.7-.3v-7.2c.2-2.6-3.1-2.1-4.9-1.6.5,2.5,0,6,.2,8.8l1.7.3v.5h-5.3v-.5l1.6-.3v-7.2"/>
      <path id="af7" data-name="af" d="M610.9,238.9c.3-2.5-2.8-2.3-4.6-1.8v9l1.6.3v.5h-4.9c-.2-.9.9-.6,1.4-.8v-9.6c-.5-.2-1.6,0-1.4-.8h3.2v.9c2.2-1.6,6.8-2,6.8,2.1v7.4c.5.2,1.6,0,1.4.8h-4.9v-.5l1.5-.3v-7.2"/>
      <path id="ag6" data-name="ag" d="M617.4,238.1c.5,3.3,5.8,1.6,5.8,5.7s-4.7,3.9-7.6,2.8v-2.7c1.4,0,.6,2,2.1,2.1,2.4,1.3,5.2-1.8,2.8-3.4s-4.9-.9-4.9-4,3.9-3.5,6.8-2.8v2.4c-1.3,0-.5-1.7-1.9-1.7-1.4-.5-3.4,0-3.1,1.6"/>
    </g>
    <path class="st21" d="M628,27.3c17.7,0,32,17.9,32,40s-14.3,40-32,40h-96c-17.7,0-32-17.9-32-40s14.3-40,32-40h96Z"/>
    <g id="J">
      <path id="ah1" data-name="ah" d="M560,50.4v6.2l2.6.3v.6h-6.9v-.6l1.9-.3v-14.1l-2.1-.3v-.7h12v3.9h-.7l-.4-2.6c-1.9-.3-4.3-.2-6.5-.2v6.7h4.7l.3-1.9h.7v5h-.7l-.3-2h-4.7"/>
      <path id="Y7" data-name="Y" d="M571.7,44c-1.6,0-1.7-2.6,0-2.6.9,0,1.2.5,1.4,1.3,0,.7-.5,1.3-1.4,1.3ZM572.9,56.7l1.9.3v.5h-5.8v-.5l1.9-.3v-9.6l-1.6-.3v-.5h3.6v10.4"/>
      <path id="af8" data-name="af" d="M583.8,49.5c.3-2.5-2.8-2.3-4.6-1.8v9l1.6.3v.5h-4.9c-.2-.9.9-.6,1.4-.8v-9.6c-.5-.2-1.6,0-1.4-.8h3.2v.9c2.2-1.6,6.8-2,6.8,2.1v7.4c.5.2,1.6,0,1.4.8h-4.9v-.5l1.5-.3v-7.2"/>
      <path id="ak7" data-name="ak" d="M589.7,46.5c2.8-.7,6.9-1,6.9,2.6v7.6c.5.2,1.6-.1,1.4.8h-3.1l-.3-1.2c-1.6,2-7,2-6.3-2-.1-3.4,3.1-3.4,6.2-3.5.3-2.4-.3-4.8-2.9-3.8-.4.1-.8.3-1.1.4-.3.5,0,1.6-1,1.4v-2.4ZM590.4,54.4c0,2.8,2.8,2.2,4.3,1.5v-4c-2.3,0-4.3,0-4.3,2.5"/>
      <path id="W14" data-name="W" d="M602.7,56.7l1.9.3v.5h-5.8v-.5l1.9-.3v-15.3l-1.9-.3v-.5h3.9v16.2"/>
    </g>
    <g id="K">
      <path id="ax" class="st30" d="M530.1,86.9v-.9c.1,0,2.8-.3,2.8-.3l2.4-13.5-3.4.2-1,3h-1l.8-4.5h13.2l-.8,4.5h-1v-3c.1,0-3.3-.2-3.3-.2l-2.4,13.5,2.4.3v.9h-8.8"/>
      <path id="ay" class="st30" d="M546.2,85.8l1.4.3v.8h-4.8l1.8-10.1-1.1-.3v-.7h4.5l-1.8,10.1ZM548.8,71.7c0,2.6-3.7,2.2-3.7,0s.7-1.8,1.9-1.8,1.8.7,1.8,1.8"/>
      <path id="az" class="st30" d="M555.6,85.2c-.7,1-1.8,2-3.3,2s-3-1.7-3.1-3.9c0-4.9,2.9-8.8,8.1-7.5l.7-4.7-1.9-.3v-.8h5.3l-2.8,16,1.2.3v.7h-4.1v-1.7ZM556.9,77.1c-3.1-1.9-4.6,2.5-4.6,5.6s1.6,3.5,2.9,1.7c1.2-1.7,1-5,1.7-7.3"/>
      <path id="aA" class="st30" d="M569,75.7c1.5,0,3.8-.5,2.9,1.8-2,4.3-4.8,8-7.2,12-1.1,1.8-3.1,3.5-6,2.5l.5-2.9h.7c-.3,2,1.8,2.2,2.9.7.6-.9,1.4-1.9,2-2.9l-2.6-10.2-.7-.3v-.7h3.8l1.8,7.6c1-1.9,2.6-3.3,2.9-5.7.1-.8-.5-1-1-1.2"/>
    </g>
    <g id="L">
      <path id="ai1" data-name="ai" d="M581.8,86.9v-.6l2.6-.3v-14.1c-1.5,0-3.6,0-4.8.3l-.3,2.5h-.7v-3.8h14.1v3.8h-.8l-.3-2.5-4.8-.2v14l2.5.3v.6h-7.4"/>
      <path id="ak8" data-name="ak" d="M593.4,75.8c2.8-.7,6.9-1,6.9,2.6v7.6c.5.2,1.6-.1,1.4.8h-3.1l-.3-1.2c-1.6,2-7,2-6.3-2-.1-3.4,3.1-3.4,6.2-3.5.3-2.4-.3-4.8-2.9-3.8-.4.1-.8.3-1.1.4-.3.5,0,1.6-1,1.4v-2.4ZM594.1,83.7c0,2.8,2.8,2.2,4.3,1.5v-4c-2.3,0-4.3,0-4.3,2.5"/>
      <path id="av1" data-name="av" d="M605.6,85.9c3.9.8,5.6-1,5.6-5s-2.4-5.2-5.6-3.9v8.9ZM608.1,87.2c-1.7,0-3.2-.4-4.4-.9v-15.5l-1.6-.3v-.5h3.6v6.4c3.2-2.2,7.7-.3,7.7,4.7s-1.6,6.2-5.2,6.2"/>
      <path id="W15" data-name="W" d="M618.7,86.1l1.9.3v.5h-5.8v-.5l1.9-.3v-15.3l-1.9-.3v-.5h3.9v16.2"/>
      <path id="aa20" data-name="aa" d="M626.8,75.3c3.3,0,4.5,2.2,4.3,5.9h-6.9c-.5,4.1,2.6,5.4,6.5,4.3v.7c-.9.5-2.2,1-3.6,1-3.7,0-5-2.2-5-6,0-3.7,1.5-5.8,4.8-5.8ZM629,80.3c.8-3.9-3.9-5.6-4.7-1.6,0,.5-.1,1-.1,1.6h4.8"/>
    </g>
  </g>
  <g id="Layer_2">
    <path class="st16" d="M100,161.7V60h140.5"/>
    <path class="st35" d="M101,162.7h-2v-1h2v1Z"/>
    <path class="st18" d="M255.8,60l-14.3,4.6v-9.3l14.3,4.6Z"/>
    <path class="st9" d="M340,102v38.5"/>
    <path class="st29" d="M341,102h-2v-1h2v1Z"/>
    <path class="st10" d="M340,155.8l-4.6-14.3h9.3l-4.6,14.3Z"/>
    <path class="st6" d="M340,289.3v38.5"/>
    <path class="st28" d="M341,289.4h-2v-1h2v1Z"/>
    <path class="st12" d="M340,343.1l-4.6-14.3h9.3l-4.6,14.3Z"/>
    <path class="st14" d="M340,469.3v38.5"/>
    <path class="st34" d="M341,469.4h-2v-1h2v1Z"/>
    <path class="st5" d="M340,523.1l-4.6-14.3h9.3l-4.6,14.3Z"/>
    <path class="st26" d="M422,587.3h58.4"/>
    <path class="st36" d="M422,588.3h-1v-2h1v2Z"/>
    <path class="st23" d="M495.6,587.3l-14.3,4.6v-9.3l14.3,4.6Z"/>
    <path class="st17" d="M580,525.3v-38.5"/>
    <path class="st27" d="M581,526.3h-2v-1h2v1Z"/>
    <path class="st8" d="M580,471.6l4.6,14.3h-9.3l4.6-14.3Z"/>
    <path class="st15" d="M580,345.3v-38.5"/>
    <path class="st31" d="M581,346.3h-2v-1h2v1Z"/>
    <path class="st11" d="M580,291.6l4.6,14.3h-9.3l4.6-14.3Z"/>
    <path class="st24" d="M580,165.3v-38.5"/>
    <path class="st33" d="M581,166.3h-2v-1h2v1Z"/>
    <path class="st3" d="M580,111.6l4.6,14.3h-9.3l4.6-14.3Z"/>
  </g>
</svg>